# xmcd
#
# Track frame offsets:
#	150
#	16069
#	30467
#	48344
#	64633
#	81928
#	101200
#	119053
#	133499
#	149935
#	166420
#	182609
#	200347
#
# Disc length: 2966 seconds
#
# Revision: 3
# Processed by: cddbd v1.5.2PL0 Copyright (c) Steve Scherf et al.
# Submitted via: EZCDAudioConverter 8.0.2.1
#
DISCID=c00b940d
DTITLE=Ánh Minh, Thùy Hương - Puriti. Baby I Would
DYEAR=2004
DGENRE=Dance
TTITLE0=Baby I Would
TTITLE1=No Part Of You
TTITLE2=Người đến
TTITLE3=Without You
TTITLE4=All Out Of Love
TTITLE5=Set Me Free
TTITLE6=Hãy nói yêu em
TTITLE7=Tình đầu
TTITLE8=If I Disappera
TTITLE9=Dancing Queen
TTITLE10=Because I'm A Girl
TTITLE11=Yêu anh
TTITLE12=Boney M Medley feat. Cardin
EXTD=
EXTT0=
EXTT1=
EXTT2=
EXTT3=
EXTT4=
EXTT5=
EXTT6=
EXTT7=
EXTT8=
EXTT9=
EXTT10=
EXTT11=
EXTT12=
PLAYORDER=
